<svg xmlns="http://www.w3.org/2000/svg" viewBox="0 0 274.2 117.4"><style>.st0{fill:none;stroke:#000000;stroke-width:6;stroke-miterlimit:10;} .st1{fill:#FF0000;stroke:#000000;stroke-width:6;stroke-miterlimit:10;} .st2{fill:#FFFFFF;stroke:#000000;stroke-width:5;stroke-miterlimit:10;} .st3{fill:#FFFFFF;stroke:#000000;stroke-width:9;stroke-miterlimit:10;}</style><path d="M9.6 115.9H0V66.6c0-7.1 2.3-12.9 6.9-17.4 4.6-4.5 10.2-6.7 17-6.7 7.4 0 13 1.9 16.8 5.6 3.8 3.8 5.6 8.4 5.6 13.8 0 7-3.2 12-9.7 15v.4c8.9 2.5 13.3 8.7 13.3 18.5 0 13.4-7.9 20-23.7 20H13.3v-9.1h12.8c4.8 0 8.2-1 10.4-2.9 2.2-1.9 3.3-5 3.3-9.3 0-3.7-1.2-6.6-3.6-8.6s-5.6-3-9.7-3H16.4v-8.6H23c3.7 0 6.9-1 9.6-3 2.7-2 4-4.8 4-8.2 0-3.3-1-6.1-3-8.3-2-2.2-5.3-3.3-9.9-3.3-4.1 0-7.5 1.3-10.1 3.9C11 58 9.7 61.8 9.7 66.7v49.2zM59.2 115.9v-4.5c0-7.1 1.4-13.2 4.3-18.2 2.9-5.1 6.9-10.1 12.1-15 3.3-3.1 5.9-5.6 7.7-7.6 1.8-2 3.8-4.6 5.8-7.9 2-3.3 3.4-6.6 4.2-10H59.2v-9.1h44.3c0 7.6-.7 13.2-2 16.7-3 8.1-9 16.2-18.2 24.1-4.3 3.7-7.6 7.2-9.9 10.6-2.2 3.4-3.6 7.4-4.2 11.8h34.4v9.1H59.2zM128 115.9h-9.1V75h-8.5l4.2-8.7H128zM232.9 115.9h-9.7V43.6h25.5c8.5 0 14.9 1.9 19.1 5.7 4.2 3.8 6.3 9.8 6.3 18v48.6h-9.7V66c0-4.7-1.4-8.1-4.3-10.2-2.9-2.1-6.6-3.2-11.3-3.2h-15.9v63.3z"/><path class="st0" d="M120.9 52.4l32.8-38 22.5 62.3"/><circle class="st1" cx="153.1" cy="14.9" r="11.9"/><circle class="st2" cx="120.9" cy="52.4" r="7.4"/><ellipse class="st3" cx="175.8" cy="76.8" rx="34.2" ry="36.2"/></svg>
