<svg xmlns="http://www.w3.org/2000/svg" viewBox="0 0 16 16">
  <path d="M8.235 11.305c.04.093.027.18-.038.26l-2.6 2.85c-.048.05-.105.075-.17.075-.068 0-.128-.025-.177-.075l-2.636-2.85c-.064-.08-.077-.167-.038-.26.045-.095.117-.142.216-.142h1.663V1.897c0-.07.022-.126.067-.17.045-.045.102-.067.17-.067H6.12c.068 0 .125.022.17.066.043.045.066.102.066.17v9.267H8.02c.104 0 .175.047.215.142zm-.47-6.493c-.04-.092-.028-.18.037-.258l2.598-2.85c.05-.05.106-.076.17-.076.07 0 .13.025.18.075l2.636 2.85c.063.08.076.167.037.26-.045.095-.117.142-.216.142h-1.664v9.266c0 .07-.02.13-.065.176-.045.044-.103.066-.172.066H9.88c-.07 0-.126-.022-.17-.066-.044-.046-.067-.103-.067-.172V4.956H7.98c-.105 0-.176-.047-.216-.142z"/>
</svg>
