<svg xmlns="http://www.w3.org/2000/svg" viewBox="0 0 16 16">
    <path d="M15.135 2.32l-3.245.303-1.26.115c-.24.004-.445.16-.52.387-.106.236-.047.516.147.686l.364.365.876.886L7.22 9.337l-4.75-4.78c-.194-.178-.493-.178-.687 0L.77 5.542c-.18.19-.18.49 0 .686l5.388 5.387H.544c-.28 0-.505.228-.505.508v1.054c0 .277.225.507.502.507H13.97c.278 0 .51-.23.51-.51V12.14c0-.277-.23-.505-.51-.505h-5.6l4.59-4.603.27-.272c.41.41.794.777 1.163 1.162.172.232.472.33.746.248.32-.11.39-.37.415-.688.13-1.457.27-2.922.397-4.38.052-.568-.225-.835-.82-.784z"/>
</svg>
